<svg width="67" height="41" viewBox="0 0 67 41" fill="none" xmlns="http://www.w3.org/2000/svg">
<path d="M51.7727 25.625V17.9375H42.6364V12.8125H51.7727V5.125H57.8636V12.8125H67V17.9375H57.8636V25.625H51.7727ZM24.3636 20.5C21.0136 20.5 18.1458 19.4964 15.7602 17.4891C13.3746 15.4818 12.1818 13.0688 12.1818 10.25C12.1818 7.43125 13.3746 5.01823 15.7602 3.01094C18.1458 1.00365 21.0136 0 24.3636 0C27.7136 0 30.5814 1.00365 32.967 3.01094C35.3526 5.01823 36.5455 7.43125 36.5455 10.25C36.5455 13.0688 35.3526 15.4818 32.967 17.4891C30.5814 19.4964 27.7136 20.5 24.3636 20.5ZM0 41V33.825C0 32.3729 0.444636 31.0379 1.33391 29.8198C2.22318 28.6018 3.40279 27.6733 4.87273 27.0344C8.0197 25.7104 11.2174 24.717 14.4659 24.0542C17.7144 23.3914 21.0136 23.0608 24.3636 23.0625C27.7136 23.0625 31.0129 23.3939 34.2614 24.0567C37.5098 24.7196 40.7076 25.7121 43.8545 27.0344C45.3265 27.675 46.5071 28.6043 47.3964 29.8224C48.2857 31.0404 48.7293 32.3746 48.7273 33.825V41H0Z" fill="#A09F9F"/>
</svg>
