<svg width="40" height="35" viewBox="0 0 40 35" fill="none" xmlns="http://www.w3.org/2000/svg">
<path id="Vector" d="M36.5303 34.7575L22.6725 22.7688C21.5726 23.53 20.3078 24.1326 18.8781 24.5766C17.4483 25.0206 15.9268 25.2427 14.3138 25.2427C10.3177 25.2427 6.93611 24.0451 4.16894 21.6498C1.40178 19.2546 0.0174576 16.3291 0.0159912 12.8733C0.0159912 9.41626 1.40031 6.49075 4.16894 4.09681C6.93758 1.70287 10.3192 0.505266 14.3138 0.503998C18.3098 0.503998 21.6914 1.7016 24.4586 4.09681C27.2258 6.49202 28.6101 9.41753 28.6115 12.8733C28.6115 14.2688 28.3549 15.5851 27.8417 16.822C27.3284 18.0589 26.6318 19.1531 25.752 20.1046L39.6098 32.0934L36.5303 34.7575ZM14.3138 21.4367C17.0633 21.4367 19.4008 20.6038 21.3263 18.9381C23.2517 17.2724 24.2137 15.2508 24.2122 12.8733C24.2122 10.4946 23.2495 8.47238 21.3241 6.80665C19.3986 5.14091 17.0619 4.30868 14.3138 4.30995C11.5642 4.30995 9.22669 5.14281 7.30126 6.80855C5.37582 8.47429 4.41384 10.4959 4.41531 12.8733C4.41531 15.252 5.37802 17.2743 7.30346 18.94C9.22889 20.6057 11.5657 21.438 14.3138 21.4367Z" fill="black"/>
</svg>
