<svg width="86" height="86" viewBox="0 0 86 86" fill="none" xmlns="http://www.w3.org/2000/svg">
<g id="person">
<g id="Ellipse 7">
<circle cx="43" cy="43" r="43" fill="#A09F9F"/>
<circle cx="43" cy="43" r="43" stroke="black"/>
</g>
<path id="Vector" d="M35.5382 39.4722C33.6121 39.4722 32.0071 38.6996 30.723 37.1543C29.439 35.6089 28.9308 33.8061 29.1983 31.7457L30.2415 23.3323C30.6695 20.07 32.0606 17.3651 34.4146 15.2177C36.7687 13.0703 39.524 11.9977 42.6806 12C45.8371 12 48.5924 13.0737 50.9465 15.2211C53.3005 17.3685 54.6916 20.0723 55.1196 23.3323L56.1628 31.7457C56.4304 33.8061 55.9221 35.6089 54.6381 37.1543C53.354 38.6996 51.749 39.4722 49.823 39.4722H35.5382ZM23.4201 66.9444C21.6546 66.9444 20.1427 66.2714 18.8843 64.9252C17.626 63.5791 16.9979 61.9628 17 60.0764V57.3292C17 55.3832 17.4687 53.5941 18.406 51.9618C19.3434 50.3295 20.5867 49.0852 22.1361 48.229C25.4532 46.4547 28.8238 45.1235 32.2478 44.2352C35.6719 43.3469 39.1495 42.904 42.6806 42.9062C46.2116 42.9062 49.6892 43.3504 53.1133 44.2386C56.5374 45.1269 59.9079 46.457 63.225 48.229C64.7765 49.0875 66.021 50.3329 66.9583 51.9652C67.8956 53.5975 68.3632 55.3855 68.3611 57.3292V60.0764C68.3611 61.9651 67.7319 63.5825 66.4736 64.9287C65.2152 66.2748 63.7044 66.9467 61.941 66.9444H23.4201Z" fill="#C0BDBD"/>
</g>
</svg>
